<?xml version="1.0" standalone="no"?>
<!DOCTYPE svg PUBLIC "-//W3C//DTD SVG 20010904//EN"
 "http://www.w3.org/TR/2001/REC-SVG-20010904/DTD/svg10.dtd">
<svg version="1.0" xmlns="http://www.w3.org/2000/svg"
 width="512.000000pt" height="512.000000pt" viewBox="0 0 512.000000 512.000000"
 preserveAspectRatio="xMidYMid meet">

<g transform="translate(0.000000,512.000000) scale(0.100000,-0.100000)"
fill="#000000" stroke="none">
<path d="M0 2560 l0 -2560 2560 0 2560 0 0 2560 0 2560 -2560 0 -2560 0 0
-2560z m1640 1590 c246 -30 493 -103 703 -209 l132 -66 3 -1233 2 -1232 -72
36 c-184 93 -447 174 -678 211 -86 13 -172 18 -345 18 -251 0 -344 -11 -555
-65 -122 -31 -146 -29 -174 12 -14 20 -16 137 -16 1200 0 1156 0 1178 20 1198
35 35 264 97 460 125 116 16 405 19 520 5z m2350 -5 c203 -27 434 -89 470
-125 20 -20 20 -42 20 -1198 0 -1063 -2 -1180 -16 -1200 -28 -41 -52 -42 -179
-11 -210 51 -319 63 -560 64 -164 0 -250 -5 -335 -18 -232 -37 -451 -103 -648
-197 l-102 -49 2 1232 3 1232 131 66 c201 101 458 179 689 208 113 14 410 12
525 -4z m-3508 -1427 l3 -1123 29 -49 c18 -30 46 -59 76 -78 42 -26 49 -35 55
-74 9 -65 60 -133 124 -166 l53 -28 669 0 669 0 0 -80 0 -80 -894 0 c-865 0
-895 1 -917 19 l-24 19 -3 1349 c-2 992 1 1354 9 1369 15 30 45 43 101 43 l48
1 2 -1122z m4271 1110 c12 -6 27 -18 34 -27 10 -12 12 -318 13 -1354 0 -1425
1 -1383 -45 -1401 -9 -3 -417 -6 -906 -6 l-889 0 0 80 0 80 669 0 669 0 53 28
c63 33 103 85 122 159 11 46 19 57 59 82 28 18 57 48 75 78 l28 48 3 1123 2
1122 46 0 c25 0 55 -5 67 -12z m-3038 -2333 c55 -8 145 -27 199 -41 97 -25
264 -79 274 -89 3 -3 -296 -5 -664 -5 -720 0 -704 -1 -717 50 -4 16 1 23 20
31 42 16 267 59 360 69 118 12 404 4 528 -15z m2351 -5 c66 -11 149 -28 185
-38 53 -15 63 -21 61 -37 -2 -11 -12 -28 -24 -37 -19 -17 -66 -18 -692 -17
l-671 0 65 26 c150 58 336 102 520 122 132 15 416 5 556 -19z"/>
</g>
</svg>
